<svg width="1920" height="1080" viewBox="0 0 1920 1080" fill="none" xmlns="http://www.w3.org/2000/svg">
<g clip-path="url(#clip0)">
<rect width="1920" height="1080" fill="#CBCCC9"/>
<path d="M99.1794 1006.75L91.8964 983.333L84.7728 1006.75H73.0775L60.7442 968.921H72.7054L79.5099 994.089L87.0588 969.185H97.2656L104.921 994.089L111.619 968.921H123.314L111.087 1006.75H99.1794Z" fill="black"/>
<path d="M154.319 1006.75L151.449 999.706H133.959L131.141 1006.75H119.818L136.351 968.921H149.429L165.962 1006.75H154.319ZM142.73 977.716L137.255 991.281H148.206L142.73 977.716Z" fill="black"/>
<path d="M199.33 1006.75V991.917H182V1006.75H170.836V968.921H182V982.591H199.33V968.921H210.494V1006.75H199.33Z" fill="black"/>
<path d="M229.804 972.515C229.804 973.698 229.529 974.731 228.98 975.615C228.431 976.498 227.633 977.186 226.588 977.681C225.542 978.176 224.311 978.423 222.893 978.423C221.511 978.423 220.297 978.193 219.252 977.734C218.224 977.257 217.417 976.577 216.833 975.694C216.266 974.793 215.982 973.734 215.982 972.515C215.982 971.331 216.257 970.298 216.806 969.415C217.355 968.532 218.153 967.843 219.198 967.349C220.244 966.854 221.475 966.607 222.893 966.607C224.275 966.607 225.48 966.845 226.508 967.322C227.553 967.781 228.36 968.461 228.927 969.362C229.511 970.245 229.804 971.296 229.804 972.515ZM228.023 972.515C228.023 971.137 227.571 970.069 226.667 969.309C225.781 968.55 224.523 968.17 222.893 968.17C221.263 968.17 219.996 968.55 219.092 969.309C218.206 970.069 217.763 971.137 217.763 972.515C217.763 973.892 218.206 974.961 219.092 975.721C219.996 976.48 221.263 976.86 222.893 976.86C224.523 976.86 225.781 976.48 226.667 975.721C227.571 974.961 228.023 973.892 228.023 972.515ZM224.302 975.297L223.265 973.575H221.936V975.297H220.129V969.601H223.132C224.957 969.601 225.87 970.254 225.87 971.561C225.87 972.285 225.533 972.815 224.86 973.151L226.242 975.297H224.302ZM223.079 972.17C223.735 972.17 224.063 971.967 224.063 971.561C224.063 971.349 223.983 971.208 223.823 971.137C223.664 971.049 223.398 971.005 223.026 971.005H221.936V972.17H223.079Z" fill="black"/>
<g filter="url(#filter0_d)">
<rect x="559" y="226" width="802" height="982" rx="6" fill="white"/>
</g>
<rect x="735" y="380" width="78" height="30" fill="#F1F1F1"/>
<rect x="735" y="433" width="450" height="43" fill="#F1F1F1"/>
<rect x="735" y="647" width="65" height="30" fill="#F1F1F1"/>
<rect x="735" y="700" width="450" height="117" fill="#F1F1F1"/>
<rect x="735" y="841" width="450" height="43" fill="#F1F1F1"/>
<rect x="735" y="907" width="450" height="43" fill="#F1F1F1"/>
<rect x="725" y="528" width="470" height="75" rx="6" fill="#648563"/>
</g>
<defs>
<filter id="filter0_d" x="555" y="226" width="810" height="990" filterUnits="userSpaceOnUse" color-interpolation-filters="sRGB">
<feFlood flood-opacity="0" result="BackgroundImageFix"/>
<feColorMatrix in="SourceAlpha" type="matrix" values="0 0 0 0 0 0 0 0 0 0 0 0 0 0 0 0 0 0 127 0"/>
<feOffset dy="4"/>
<feGaussianBlur stdDeviation="2"/>
<feColorMatrix type="matrix" values="0 0 0 0 0 0 0 0 0 0 0 0 0 0 0 0 0 0 0.25 0"/>
<feBlend mode="normal" in2="BackgroundImageFix" result="effect1_dropShadow"/>
<feBlend mode="normal" in="SourceGraphic" in2="effect1_dropShadow" result="shape"/>
</filter>
<clipPath id="clip0">
<rect width="1920" height="1080" fill="white"/>
</clipPath>
</defs>
</svg>
